<?xml version="1.0" encoding="UTF-8" standalone="no"?>
<!DOCTYPE svg PUBLIC "-//W3C//DTD SVG 1.1//EN"
 "http://www.w3.org/Graphics/SVG/1.1/DTD/svg11.dtd">
<!-- Generated by graphviz version 2.43.0 (0)
 -->
<!-- Title: %3 Pages: 1 -->
<svg width="171pt" height="2348pt"
 viewBox="0.00 0.00 171.15 2348.00" xmlns="http://www.w3.org/2000/svg" xmlns:xlink="http://www.w3.org/1999/xlink">
<g id="graph0" class="graph" transform="scale(1 1) rotate(0) translate(4 2344)">
<title>%3</title>
<polygon fill="white" stroke="transparent" points="-4,4 -4,-2344 167.15,-2344 167.15,4 -4,4"/>
<!-- 0 -->
<g id="node1" class="node">
<title>0</title>
<ellipse fill="none" stroke="black" cx="39.15" cy="-2322" rx="27" ry="18"/>
<text text-anchor="middle" x="39.15" y="-2318.3" font-family="Times,serif" font-size="14.00">0</text>
</g>
<!-- 1 -->
<g id="node2" class="node">
<title>1</title>
<ellipse fill="none" stroke="black" cx="39.15" cy="-2250" rx="27" ry="18"/>
<text text-anchor="middle" x="39.15" y="-2246.3" font-family="Times,serif" font-size="14.00">1</text>
</g>
<!-- 0&#45;&gt;1 -->
<g id="edge1" class="edge">
<title>0&#45;&gt;1</title>
<path fill="none" stroke="black" d="M39.15,-2303.7C39.15,-2295.98 39.15,-2286.71 39.15,-2278.11"/>
<polygon fill="black" stroke="black" points="42.65,-2278.1 39.15,-2268.1 35.65,-2278.1 42.65,-2278.1"/>
</g>
<!-- 2 -->
<g id="node3" class="node">
<title>2</title>
<ellipse fill="none" stroke="black" cx="94.15" cy="-2178" rx="27" ry="18"/>
<text text-anchor="middle" x="94.15" y="-2174.3" font-family="Times,serif" font-size="14.00">2</text>
</g>
<!-- 0&#45;&gt;2 -->
<g id="edge2" class="edge">
<title>0&#45;&gt;2</title>
<path fill="none" stroke="black" d="M51.9,-2305.7C59.71,-2295.59 69.3,-2281.71 75.15,-2268 83.61,-2248.17 88.45,-2224.2 91.13,-2206.13"/>
<polygon fill="black" stroke="black" points="94.62,-2206.37 92.49,-2195.99 87.69,-2205.43 94.62,-2206.37"/>
</g>
<!-- 3 -->
<g id="node4" class="node">
<title>3</title>
<ellipse fill="none" stroke="black" cx="56.15" cy="-2106" rx="27" ry="18"/>
<text text-anchor="middle" x="56.15" y="-2102.3" font-family="Times,serif" font-size="14.00">3</text>
</g>
<!-- 0&#45;&gt;3 -->
<g id="edge3" class="edge">
<title>0&#45;&gt;3</title>
<path fill="none" stroke="black" d="M25.4,-2306.07C17.19,-2296.1 7.53,-2282.25 3.15,-2268 -1.55,-2252.71 -0.04,-2247.68 3.15,-2232 10.53,-2195.7 28.82,-2156.87 41.84,-2132.29"/>
<polygon fill="black" stroke="black" points="45.03,-2133.75 46.71,-2123.29 38.87,-2130.42 45.03,-2133.75"/>
</g>
<!-- 1&#45;&gt;2 -->
<g id="edge4" class="edge">
<title>1&#45;&gt;2</title>
<path fill="none" stroke="black" d="M51.08,-2233.81C58.36,-2224.55 67.81,-2212.52 76,-2202.09"/>
<polygon fill="black" stroke="black" points="78.81,-2204.18 82.24,-2194.16 73.31,-2199.86 78.81,-2204.18"/>
</g>
<!-- 1&#45;&gt;3 -->
<g id="edge5" class="edge">
<title>1&#45;&gt;3</title>
<path fill="none" stroke="black" d="M41.2,-2231.87C44.1,-2207.67 49.42,-2163.21 52.87,-2134.39"/>
<polygon fill="black" stroke="black" points="56.38,-2134.53 54.09,-2124.19 49.43,-2133.7 56.38,-2134.53"/>
</g>
<!-- 4 -->
<g id="node5" class="node">
<title>4</title>
<ellipse fill="none" stroke="black" cx="56.15" cy="-2034" rx="27" ry="18"/>
<text text-anchor="middle" x="56.15" y="-2030.3" font-family="Times,serif" font-size="14.00">4</text>
</g>
<!-- 1&#45;&gt;4 -->
<g id="edge6" class="edge">
<title>1&#45;&gt;4</title>
<path fill="none" stroke="black" d="M32.71,-2232.14C22.32,-2202.37 4.51,-2138.85 20.15,-2088 23.43,-2077.31 29.69,-2066.85 36.07,-2058.08"/>
<polygon fill="black" stroke="black" points="39.03,-2059.98 42.4,-2049.93 33.5,-2055.69 39.03,-2059.98"/>
</g>
<!-- 2&#45;&gt;3 -->
<g id="edge7" class="edge">
<title>2&#45;&gt;3</title>
<path fill="none" stroke="black" d="M85.33,-2160.76C80.73,-2152.28 74.99,-2141.71 69.83,-2132.2"/>
<polygon fill="black" stroke="black" points="72.76,-2130.27 64.91,-2123.15 66.61,-2133.61 72.76,-2130.27"/>
</g>
<!-- 2&#45;&gt;4 -->
<g id="edge8" class="edge">
<title>2&#45;&gt;4</title>
<path fill="none" stroke="black" d="M96.59,-2159.8C98.53,-2141.52 99.82,-2111.99 92.15,-2088 88.74,-2077.35 82.46,-2066.9 76.09,-2058.12"/>
<polygon fill="black" stroke="black" points="78.67,-2055.74 69.79,-2049.97 73.13,-2060.02 78.67,-2055.74"/>
</g>
<!-- 3&#45;&gt;4 -->
<g id="edge9" class="edge">
<title>3&#45;&gt;4</title>
<path fill="none" stroke="black" d="M56.15,-2087.7C56.15,-2079.98 56.15,-2070.71 56.15,-2062.11"/>
<polygon fill="black" stroke="black" points="59.65,-2062.1 56.15,-2052.1 52.65,-2062.1 59.65,-2062.1"/>
</g>
<!-- 7 -->
<g id="node6" class="node">
<title>7</title>
<ellipse fill="none" stroke="black" cx="56.15" cy="-1962" rx="27" ry="18"/>
<text text-anchor="middle" x="56.15" y="-1958.3" font-family="Times,serif" font-size="14.00">7</text>
</g>
<!-- 4&#45;&gt;7 -->
<g id="edge10" class="edge">
<title>4&#45;&gt;7</title>
<path fill="none" stroke="black" d="M56.15,-2015.7C56.15,-2007.98 56.15,-1998.71 56.15,-1990.11"/>
<polygon fill="black" stroke="black" points="59.65,-1990.1 56.15,-1980.1 52.65,-1990.1 59.65,-1990.1"/>
</g>
<!-- 8 -->
<g id="node7" class="node">
<title>8</title>
<ellipse fill="none" stroke="black" cx="56.15" cy="-1890" rx="27" ry="18"/>
<text text-anchor="middle" x="56.15" y="-1886.3" font-family="Times,serif" font-size="14.00">8</text>
</g>
<!-- 7&#45;&gt;8 -->
<g id="edge11" class="edge">
<title>7&#45;&gt;8</title>
<path fill="none" stroke="black" d="M56.15,-1943.7C56.15,-1935.98 56.15,-1926.71 56.15,-1918.11"/>
<polygon fill="black" stroke="black" points="59.65,-1918.1 56.15,-1908.1 52.65,-1918.1 59.65,-1918.1"/>
</g>
<!-- 9 -->
<g id="node8" class="node">
<title>9</title>
<ellipse fill="none" stroke="black" cx="111.15" cy="-1818" rx="27" ry="18"/>
<text text-anchor="middle" x="111.15" y="-1814.3" font-family="Times,serif" font-size="14.00">9</text>
</g>
<!-- 7&#45;&gt;9 -->
<g id="edge12" class="edge">
<title>7&#45;&gt;9</title>
<path fill="none" stroke="black" d="M68.9,-1945.7C76.71,-1935.59 86.3,-1921.71 92.15,-1908 100.61,-1888.17 105.45,-1864.2 108.13,-1846.13"/>
<polygon fill="black" stroke="black" points="111.62,-1846.37 109.49,-1835.99 104.69,-1845.43 111.62,-1846.37"/>
</g>
<!-- 10 -->
<g id="node9" class="node">
<title>10</title>
<ellipse fill="none" stroke="black" cx="73.15" cy="-1746" rx="27" ry="18"/>
<text text-anchor="middle" x="73.15" y="-1742.3" font-family="Times,serif" font-size="14.00">10</text>
</g>
<!-- 7&#45;&gt;10 -->
<g id="edge13" class="edge">
<title>7&#45;&gt;10</title>
<path fill="none" stroke="black" d="M42.4,-1946.07C34.19,-1936.1 24.53,-1922.25 20.15,-1908 15.45,-1892.71 16.96,-1887.68 20.15,-1872 27.53,-1835.7 45.82,-1796.87 58.84,-1772.29"/>
<polygon fill="black" stroke="black" points="62.03,-1773.75 63.71,-1763.29 55.87,-1770.42 62.03,-1773.75"/>
</g>
<!-- 8&#45;&gt;9 -->
<g id="edge14" class="edge">
<title>8&#45;&gt;9</title>
<path fill="none" stroke="black" d="M68.08,-1873.81C75.36,-1864.55 84.81,-1852.52 93,-1842.09"/>
<polygon fill="black" stroke="black" points="95.81,-1844.18 99.24,-1834.16 90.31,-1839.86 95.81,-1844.18"/>
</g>
<!-- 8&#45;&gt;10 -->
<g id="edge15" class="edge">
<title>8&#45;&gt;10</title>
<path fill="none" stroke="black" d="M58.2,-1871.87C61.1,-1847.67 66.42,-1803.21 69.87,-1774.39"/>
<polygon fill="black" stroke="black" points="73.38,-1774.53 71.09,-1764.19 66.43,-1773.7 73.38,-1774.53"/>
</g>
<!-- 11 -->
<g id="node10" class="node">
<title>11</title>
<ellipse fill="none" stroke="black" cx="73.15" cy="-1674" rx="27" ry="18"/>
<text text-anchor="middle" x="73.15" y="-1670.3" font-family="Times,serif" font-size="14.00">11</text>
</g>
<!-- 8&#45;&gt;11 -->
<g id="edge16" class="edge">
<title>8&#45;&gt;11</title>
<path fill="none" stroke="black" d="M49.71,-1872.14C39.32,-1842.37 21.51,-1778.85 37.15,-1728 40.43,-1717.31 46.69,-1706.85 53.07,-1698.08"/>
<polygon fill="black" stroke="black" points="56.03,-1699.98 59.4,-1689.93 50.5,-1695.69 56.03,-1699.98"/>
</g>
<!-- 9&#45;&gt;10 -->
<g id="edge17" class="edge">
<title>9&#45;&gt;10</title>
<path fill="none" stroke="black" d="M102.33,-1800.76C97.73,-1792.28 91.99,-1781.71 86.83,-1772.2"/>
<polygon fill="black" stroke="black" points="89.76,-1770.27 81.91,-1763.15 83.61,-1773.61 89.76,-1770.27"/>
</g>
<!-- 9&#45;&gt;11 -->
<g id="edge18" class="edge">
<title>9&#45;&gt;11</title>
<path fill="none" stroke="black" d="M113.59,-1799.8C115.53,-1781.52 116.82,-1751.99 109.15,-1728 105.74,-1717.35 99.46,-1706.9 93.09,-1698.12"/>
<polygon fill="black" stroke="black" points="95.67,-1695.74 86.79,-1689.97 90.13,-1700.02 95.67,-1695.74"/>
</g>
<!-- 10&#45;&gt;11 -->
<g id="edge19" class="edge">
<title>10&#45;&gt;11</title>
<path fill="none" stroke="black" d="M73.15,-1727.7C73.15,-1719.98 73.15,-1710.71 73.15,-1702.11"/>
<polygon fill="black" stroke="black" points="76.65,-1702.1 73.15,-1692.1 69.65,-1702.1 76.65,-1702.1"/>
</g>
<!-- 14 -->
<g id="node11" class="node">
<title>14</title>
<ellipse fill="none" stroke="black" cx="73.15" cy="-1602" rx="27" ry="18"/>
<text text-anchor="middle" x="73.15" y="-1598.3" font-family="Times,serif" font-size="14.00">14</text>
</g>
<!-- 11&#45;&gt;14 -->
<g id="edge20" class="edge">
<title>11&#45;&gt;14</title>
<path fill="none" stroke="black" d="M73.15,-1655.7C73.15,-1647.98 73.15,-1638.71 73.15,-1630.11"/>
<polygon fill="black" stroke="black" points="76.65,-1630.1 73.15,-1620.1 69.65,-1630.1 76.65,-1630.1"/>
</g>
<!-- 17 -->
<g id="node12" class="node">
<title>17</title>
<ellipse fill="none" stroke="black" cx="73.15" cy="-1530" rx="27" ry="18"/>
<text text-anchor="middle" x="73.15" y="-1526.3" font-family="Times,serif" font-size="14.00">17</text>
</g>
<!-- 14&#45;&gt;17 -->
<g id="edge21" class="edge">
<title>14&#45;&gt;17</title>
<path fill="none" stroke="black" d="M73.15,-1583.7C73.15,-1575.98 73.15,-1566.71 73.15,-1558.11"/>
<polygon fill="black" stroke="black" points="76.65,-1558.1 73.15,-1548.1 69.65,-1558.1 76.65,-1558.1"/>
</g>
<!-- 18 -->
<g id="node13" class="node">
<title>18</title>
<ellipse fill="none" stroke="black" cx="73.15" cy="-1458" rx="27" ry="18"/>
<text text-anchor="middle" x="73.15" y="-1454.3" font-family="Times,serif" font-size="14.00">18</text>
</g>
<!-- 17&#45;&gt;18 -->
<g id="edge22" class="edge">
<title>17&#45;&gt;18</title>
<path fill="none" stroke="black" d="M73.15,-1511.7C73.15,-1503.98 73.15,-1494.71 73.15,-1486.11"/>
<polygon fill="black" stroke="black" points="76.65,-1486.1 73.15,-1476.1 69.65,-1486.1 76.65,-1486.1"/>
</g>
<!-- 19 -->
<g id="node14" class="node">
<title>19</title>
<ellipse fill="none" stroke="black" cx="119.15" cy="-1386" rx="27" ry="18"/>
<text text-anchor="middle" x="119.15" y="-1382.3" font-family="Times,serif" font-size="14.00">19</text>
</g>
<!-- 17&#45;&gt;19 -->
<g id="edge23" class="edge">
<title>17&#45;&gt;19</title>
<path fill="none" stroke="black" d="M86.36,-1513.89C94.36,-1503.85 103.98,-1489.98 109.15,-1476 116.46,-1456.22 118.83,-1432.42 119.45,-1414.41"/>
<polygon fill="black" stroke="black" points="122.95,-1414.35 119.63,-1404.29 115.95,-1414.23 122.95,-1414.35"/>
</g>
<!-- 20 -->
<g id="node15" class="node">
<title>20</title>
<ellipse fill="none" stroke="black" cx="64.15" cy="-1314" rx="27" ry="18"/>
<text text-anchor="middle" x="64.15" y="-1310.3" font-family="Times,serif" font-size="14.00">20</text>
</g>
<!-- 17&#45;&gt;20 -->
<g id="edge24" class="edge">
<title>17&#45;&gt;20</title>
<path fill="none" stroke="black" d="M59.4,-1514.07C51.19,-1504.1 41.53,-1490.25 37.15,-1476 22.87,-1429.56 39.82,-1373.11 52.58,-1340.89"/>
<polygon fill="black" stroke="black" points="55.95,-1341.9 56.53,-1331.32 49.48,-1339.23 55.95,-1341.9"/>
</g>
<!-- 18&#45;&gt;19 -->
<g id="edge25" class="edge">
<title>18&#45;&gt;19</title>
<path fill="none" stroke="black" d="M83.59,-1441.12C89.35,-1432.34 96.63,-1421.26 103.1,-1411.42"/>
<polygon fill="black" stroke="black" points="106.18,-1413.1 108.75,-1402.82 100.33,-1409.26 106.18,-1413.1"/>
</g>
<!-- 18&#45;&gt;20 -->
<g id="edge26" class="edge">
<title>18&#45;&gt;20</title>
<path fill="none" stroke="black" d="M72.06,-1439.87C70.53,-1415.67 67.71,-1371.21 65.88,-1342.39"/>
<polygon fill="black" stroke="black" points="69.36,-1341.95 65.24,-1332.19 62.38,-1342.39 69.36,-1341.95"/>
</g>
<!-- 19&#45;&gt;20 -->
<g id="edge27" class="edge">
<title>19&#45;&gt;20</title>
<path fill="none" stroke="black" d="M107.21,-1369.81C99.93,-1360.55 90.49,-1348.52 82.29,-1338.09"/>
<polygon fill="black" stroke="black" points="84.99,-1335.86 76.06,-1330.16 79.49,-1340.18 84.99,-1335.86"/>
</g>
<!-- 23 -->
<g id="node16" class="node">
<title>23</title>
<ellipse fill="none" stroke="black" cx="64.15" cy="-1242" rx="27" ry="18"/>
<text text-anchor="middle" x="64.15" y="-1238.3" font-family="Times,serif" font-size="14.00">23</text>
</g>
<!-- 20&#45;&gt;23 -->
<g id="edge28" class="edge">
<title>20&#45;&gt;23</title>
<path fill="none" stroke="black" d="M64.15,-1295.7C64.15,-1287.98 64.15,-1278.71 64.15,-1270.11"/>
<polygon fill="black" stroke="black" points="67.65,-1270.1 64.15,-1260.1 60.65,-1270.1 67.65,-1270.1"/>
</g>
<!-- 24 -->
<g id="node17" class="node">
<title>24</title>
<ellipse fill="none" stroke="black" cx="92.15" cy="-1170" rx="27" ry="18"/>
<text text-anchor="middle" x="92.15" y="-1166.3" font-family="Times,serif" font-size="14.00">24</text>
</g>
<!-- 23&#45;&gt;24 -->
<g id="edge29" class="edge">
<title>23&#45;&gt;24</title>
<path fill="none" stroke="black" d="M70.78,-1224.41C74.06,-1216.22 78.09,-1206.14 81.77,-1196.95"/>
<polygon fill="black" stroke="black" points="85.1,-1198.05 85.56,-1187.47 78.6,-1195.45 85.1,-1198.05"/>
</g>
<!-- 25 -->
<g id="node18" class="node">
<title>25</title>
<ellipse fill="none" stroke="black" cx="64.15" cy="-1098" rx="27" ry="18"/>
<text text-anchor="middle" x="64.15" y="-1094.3" font-family="Times,serif" font-size="14.00">25</text>
</g>
<!-- 23&#45;&gt;25 -->
<g id="edge30" class="edge">
<title>23&#45;&gt;25</title>
<path fill="none" stroke="black" d="M60.9,-1223.89C59.1,-1213.54 57.05,-1200.06 56.15,-1188 54.95,-1172.04 54.95,-1167.96 56.15,-1152 56.78,-1143.52 57.99,-1134.34 59.27,-1126.04"/>
<polygon fill="black" stroke="black" points="62.73,-1126.55 60.9,-1116.11 55.82,-1125.41 62.73,-1126.55"/>
</g>
<!-- 24&#45;&gt;25 -->
<g id="edge31" class="edge">
<title>24&#45;&gt;25</title>
<path fill="none" stroke="black" d="M85.51,-1152.41C82.23,-1144.22 78.2,-1134.14 74.53,-1124.95"/>
<polygon fill="black" stroke="black" points="77.7,-1123.45 70.74,-1115.47 71.2,-1126.05 77.7,-1123.45"/>
</g>
<!-- 28 -->
<g id="node19" class="node">
<title>28</title>
<ellipse fill="none" stroke="black" cx="64.15" cy="-1026" rx="27" ry="18"/>
<text text-anchor="middle" x="64.15" y="-1022.3" font-family="Times,serif" font-size="14.00">28</text>
</g>
<!-- 25&#45;&gt;28 -->
<g id="edge32" class="edge">
<title>25&#45;&gt;28</title>
<path fill="none" stroke="black" d="M64.15,-1079.7C64.15,-1071.98 64.15,-1062.71 64.15,-1054.11"/>
<polygon fill="black" stroke="black" points="67.65,-1054.1 64.15,-1044.1 60.65,-1054.1 67.65,-1054.1"/>
</g>
<!-- 31 -->
<g id="node20" class="node">
<title>31</title>
<ellipse fill="none" stroke="black" cx="64.15" cy="-954" rx="27" ry="18"/>
<text text-anchor="middle" x="64.15" y="-950.3" font-family="Times,serif" font-size="14.00">31</text>
</g>
<!-- 28&#45;&gt;31 -->
<g id="edge33" class="edge">
<title>28&#45;&gt;31</title>
<path fill="none" stroke="black" d="M64.15,-1007.7C64.15,-999.98 64.15,-990.71 64.15,-982.11"/>
<polygon fill="black" stroke="black" points="67.65,-982.1 64.15,-972.1 60.65,-982.1 67.65,-982.1"/>
</g>
<!-- 32 -->
<g id="node21" class="node">
<title>32</title>
<ellipse fill="none" stroke="black" cx="64.15" cy="-882" rx="27" ry="18"/>
<text text-anchor="middle" x="64.15" y="-878.3" font-family="Times,serif" font-size="14.00">32</text>
</g>
<!-- 31&#45;&gt;32 -->
<g id="edge34" class="edge">
<title>31&#45;&gt;32</title>
<path fill="none" stroke="black" d="M64.15,-935.7C64.15,-927.98 64.15,-918.71 64.15,-910.11"/>
<polygon fill="black" stroke="black" points="67.65,-910.1 64.15,-900.1 60.65,-910.1 67.65,-910.1"/>
</g>
<!-- 33 -->
<g id="node22" class="node">
<title>33</title>
<ellipse fill="none" stroke="black" cx="119.15" cy="-810" rx="27" ry="18"/>
<text text-anchor="middle" x="119.15" y="-806.3" font-family="Times,serif" font-size="14.00">33</text>
</g>
<!-- 31&#45;&gt;33 -->
<g id="edge35" class="edge">
<title>31&#45;&gt;33</title>
<path fill="none" stroke="black" d="M76.9,-937.7C84.71,-927.59 94.3,-913.71 100.15,-900 108.61,-880.17 113.45,-856.2 116.13,-838.13"/>
<polygon fill="black" stroke="black" points="119.62,-838.37 117.49,-827.99 112.69,-837.43 119.62,-838.37"/>
</g>
<!-- 34 -->
<g id="node23" class="node">
<title>34</title>
<ellipse fill="none" stroke="black" cx="81.15" cy="-738" rx="27" ry="18"/>
<text text-anchor="middle" x="81.15" y="-734.3" font-family="Times,serif" font-size="14.00">34</text>
</g>
<!-- 31&#45;&gt;34 -->
<g id="edge36" class="edge">
<title>31&#45;&gt;34</title>
<path fill="none" stroke="black" d="M50.4,-938.07C42.19,-928.1 32.53,-914.25 28.15,-900 23.45,-884.71 24.96,-879.68 28.15,-864 35.53,-827.7 53.82,-788.87 66.84,-764.29"/>
<polygon fill="black" stroke="black" points="70.03,-765.75 71.71,-755.29 63.87,-762.42 70.03,-765.75"/>
</g>
<!-- 32&#45;&gt;33 -->
<g id="edge37" class="edge">
<title>32&#45;&gt;33</title>
<path fill="none" stroke="black" d="M76.08,-865.81C83.36,-856.55 92.81,-844.52 101,-834.09"/>
<polygon fill="black" stroke="black" points="103.81,-836.18 107.24,-826.16 98.31,-831.86 103.81,-836.18"/>
</g>
<!-- 32&#45;&gt;34 -->
<g id="edge38" class="edge">
<title>32&#45;&gt;34</title>
<path fill="none" stroke="black" d="M66.2,-863.87C69.1,-839.67 74.42,-795.21 77.87,-766.39"/>
<polygon fill="black" stroke="black" points="81.38,-766.53 79.09,-756.19 74.43,-765.7 81.38,-766.53"/>
</g>
<!-- 35 -->
<g id="node24" class="node">
<title>35</title>
<ellipse fill="none" stroke="black" cx="81.15" cy="-666" rx="27" ry="18"/>
<text text-anchor="middle" x="81.15" y="-662.3" font-family="Times,serif" font-size="14.00">35</text>
</g>
<!-- 32&#45;&gt;35 -->
<g id="edge39" class="edge">
<title>32&#45;&gt;35</title>
<path fill="none" stroke="black" d="M57.71,-864.14C47.32,-834.37 29.51,-770.85 45.15,-720 48.43,-709.31 54.69,-698.85 61.07,-690.08"/>
<polygon fill="black" stroke="black" points="64.03,-691.98 67.4,-681.93 58.5,-687.69 64.03,-691.98"/>
</g>
<!-- 33&#45;&gt;34 -->
<g id="edge40" class="edge">
<title>33&#45;&gt;34</title>
<path fill="none" stroke="black" d="M110.33,-792.76C105.73,-784.28 99.99,-773.71 94.83,-764.2"/>
<polygon fill="black" stroke="black" points="97.76,-762.27 89.91,-755.15 91.61,-765.61 97.76,-762.27"/>
</g>
<!-- 33&#45;&gt;35 -->
<g id="edge41" class="edge">
<title>33&#45;&gt;35</title>
<path fill="none" stroke="black" d="M121.59,-791.8C123.53,-773.52 124.82,-743.99 117.15,-720 113.74,-709.35 107.46,-698.9 101.09,-690.12"/>
<polygon fill="black" stroke="black" points="103.67,-687.74 94.79,-681.97 98.13,-692.02 103.67,-687.74"/>
</g>
<!-- 34&#45;&gt;35 -->
<g id="edge42" class="edge">
<title>34&#45;&gt;35</title>
<path fill="none" stroke="black" d="M81.15,-719.7C81.15,-711.98 81.15,-702.71 81.15,-694.11"/>
<polygon fill="black" stroke="black" points="84.65,-694.1 81.15,-684.1 77.65,-694.1 84.65,-694.1"/>
</g>
<!-- 38 -->
<g id="node25" class="node">
<title>38</title>
<ellipse fill="none" stroke="black" cx="81.15" cy="-594" rx="27" ry="18"/>
<text text-anchor="middle" x="81.15" y="-590.3" font-family="Times,serif" font-size="14.00">38</text>
</g>
<!-- 35&#45;&gt;38 -->
<g id="edge43" class="edge">
<title>35&#45;&gt;38</title>
<path fill="none" stroke="black" d="M81.15,-647.7C81.15,-639.98 81.15,-630.71 81.15,-622.11"/>
<polygon fill="black" stroke="black" points="84.65,-622.1 81.15,-612.1 77.65,-622.1 84.65,-622.1"/>
</g>
<!-- 39 -->
<g id="node26" class="node">
<title>39</title>
<ellipse fill="none" stroke="black" cx="81.15" cy="-522" rx="27" ry="18"/>
<text text-anchor="middle" x="81.15" y="-518.3" font-family="Times,serif" font-size="14.00">39</text>
</g>
<!-- 38&#45;&gt;39 -->
<g id="edge44" class="edge">
<title>38&#45;&gt;39</title>
<path fill="none" stroke="black" d="M81.15,-575.7C81.15,-567.98 81.15,-558.71 81.15,-550.11"/>
<polygon fill="black" stroke="black" points="84.65,-550.1 81.15,-540.1 77.65,-550.1 84.65,-550.1"/>
</g>
<!-- 42 -->
<g id="node27" class="node">
<title>42</title>
<ellipse fill="none" stroke="black" cx="81.15" cy="-450" rx="27" ry="18"/>
<text text-anchor="middle" x="81.15" y="-446.3" font-family="Times,serif" font-size="14.00">42</text>
</g>
<!-- 39&#45;&gt;42 -->
<g id="edge45" class="edge">
<title>39&#45;&gt;42</title>
<path fill="none" stroke="black" d="M81.15,-503.7C81.15,-495.98 81.15,-486.71 81.15,-478.11"/>
<polygon fill="black" stroke="black" points="84.65,-478.1 81.15,-468.1 77.65,-478.1 84.65,-478.1"/>
</g>
<!-- 45 -->
<g id="node28" class="node">
<title>45</title>
<ellipse fill="none" stroke="black" cx="81.15" cy="-378" rx="27" ry="18"/>
<text text-anchor="middle" x="81.15" y="-374.3" font-family="Times,serif" font-size="14.00">45</text>
</g>
<!-- 42&#45;&gt;45 -->
<g id="edge46" class="edge">
<title>42&#45;&gt;45</title>
<path fill="none" stroke="black" d="M81.15,-431.7C81.15,-423.98 81.15,-414.71 81.15,-406.11"/>
<polygon fill="black" stroke="black" points="84.65,-406.1 81.15,-396.1 77.65,-406.1 84.65,-406.1"/>
</g>
<!-- 46 -->
<g id="node29" class="node">
<title>46</title>
<ellipse fill="none" stroke="black" cx="81.15" cy="-306" rx="27" ry="18"/>
<text text-anchor="middle" x="81.15" y="-302.3" font-family="Times,serif" font-size="14.00">46</text>
</g>
<!-- 45&#45;&gt;46 -->
<g id="edge47" class="edge">
<title>45&#45;&gt;46</title>
<path fill="none" stroke="black" d="M81.15,-359.7C81.15,-351.98 81.15,-342.71 81.15,-334.11"/>
<polygon fill="black" stroke="black" points="84.65,-334.1 81.15,-324.1 77.65,-334.1 84.65,-334.1"/>
</g>
<!-- 47 -->
<g id="node30" class="node">
<title>47</title>
<ellipse fill="none" stroke="black" cx="136.15" cy="-234" rx="27" ry="18"/>
<text text-anchor="middle" x="136.15" y="-230.3" font-family="Times,serif" font-size="14.00">47</text>
</g>
<!-- 45&#45;&gt;47 -->
<g id="edge48" class="edge">
<title>45&#45;&gt;47</title>
<path fill="none" stroke="black" d="M93.9,-361.7C101.71,-351.59 111.3,-337.71 117.15,-324 125.61,-304.17 130.45,-280.2 133.13,-262.13"/>
<polygon fill="black" stroke="black" points="136.62,-262.37 134.49,-251.99 129.69,-261.43 136.62,-262.37"/>
</g>
<!-- 48 -->
<g id="node31" class="node">
<title>48</title>
<ellipse fill="none" stroke="black" cx="98.15" cy="-162" rx="27" ry="18"/>
<text text-anchor="middle" x="98.15" y="-158.3" font-family="Times,serif" font-size="14.00">48</text>
</g>
<!-- 45&#45;&gt;48 -->
<g id="edge49" class="edge">
<title>45&#45;&gt;48</title>
<path fill="none" stroke="black" d="M67.4,-362.07C59.19,-352.1 49.53,-338.25 45.15,-324 40.45,-308.71 41.96,-303.68 45.15,-288 52.53,-251.7 70.82,-212.87 83.84,-188.29"/>
<polygon fill="black" stroke="black" points="87.03,-189.75 88.71,-179.29 80.87,-186.42 87.03,-189.75"/>
</g>
<!-- 46&#45;&gt;47 -->
<g id="edge50" class="edge">
<title>46&#45;&gt;47</title>
<path fill="none" stroke="black" d="M93.08,-289.81C100.36,-280.55 109.81,-268.52 118,-258.09"/>
<polygon fill="black" stroke="black" points="120.81,-260.18 124.24,-250.16 115.31,-255.86 120.81,-260.18"/>
</g>
<!-- 46&#45;&gt;48 -->
<g id="edge51" class="edge">
<title>46&#45;&gt;48</title>
<path fill="none" stroke="black" d="M83.2,-287.87C86.1,-263.67 91.42,-219.21 94.87,-190.39"/>
<polygon fill="black" stroke="black" points="98.38,-190.53 96.09,-180.19 91.43,-189.7 98.38,-190.53"/>
</g>
<!-- 49 -->
<g id="node32" class="node">
<title>49</title>
<ellipse fill="none" stroke="black" cx="98.15" cy="-90" rx="27" ry="18"/>
<text text-anchor="middle" x="98.15" y="-86.3" font-family="Times,serif" font-size="14.00">49</text>
</g>
<!-- 46&#45;&gt;49 -->
<g id="edge52" class="edge">
<title>46&#45;&gt;49</title>
<path fill="none" stroke="black" d="M74.71,-288.14C64.32,-258.37 46.51,-194.85 62.15,-144 65.43,-133.31 71.69,-122.85 78.07,-114.08"/>
<polygon fill="black" stroke="black" points="81.03,-115.98 84.4,-105.93 75.5,-111.69 81.03,-115.98"/>
</g>
<!-- 47&#45;&gt;48 -->
<g id="edge53" class="edge">
<title>47&#45;&gt;48</title>
<path fill="none" stroke="black" d="M127.33,-216.76C122.73,-208.28 116.99,-197.71 111.83,-188.2"/>
<polygon fill="black" stroke="black" points="114.76,-186.27 106.91,-179.15 108.61,-189.61 114.76,-186.27"/>
</g>
<!-- 47&#45;&gt;49 -->
<g id="edge54" class="edge">
<title>47&#45;&gt;49</title>
<path fill="none" stroke="black" d="M138.59,-215.8C140.53,-197.52 141.82,-167.99 134.15,-144 130.74,-133.35 124.46,-122.9 118.09,-114.12"/>
<polygon fill="black" stroke="black" points="120.67,-111.74 111.79,-105.97 115.13,-116.02 120.67,-111.74"/>
</g>
<!-- 48&#45;&gt;49 -->
<g id="edge55" class="edge">
<title>48&#45;&gt;49</title>
<path fill="none" stroke="black" d="M98.15,-143.7C98.15,-135.98 98.15,-126.71 98.15,-118.11"/>
<polygon fill="black" stroke="black" points="101.65,-118.1 98.15,-108.1 94.65,-118.1 101.65,-118.1"/>
</g>
<!-- 52 -->
<g id="node33" class="node">
<title>52</title>
<ellipse fill="none" stroke="black" cx="98.15" cy="-18" rx="27" ry="18"/>
<text text-anchor="middle" x="98.15" y="-14.3" font-family="Times,serif" font-size="14.00">52</text>
</g>
<!-- 49&#45;&gt;52 -->
<g id="edge56" class="edge">
<title>49&#45;&gt;52</title>
<path fill="none" stroke="black" d="M98.15,-71.7C98.15,-63.98 98.15,-54.71 98.15,-46.11"/>
<polygon fill="black" stroke="black" points="101.65,-46.1 98.15,-36.1 94.65,-46.1 101.65,-46.1"/>
</g>
</g>
</svg>
