<?xml version="1.0" encoding="UTF-8" standalone="no"?>
<!DOCTYPE svg PUBLIC "-//W3C//DTD SVG 1.1//EN"
 "http://www.w3.org/Graphics/SVG/1.1/DTD/svg11.dtd">
<!-- Generated by graphviz version 2.43.0 (0)
 -->
<!-- Title: %3 Pages: 1 -->
<svg width="382pt" height="332pt"
 viewBox="0.00 0.00 382.29 332.00" xmlns="http://www.w3.org/2000/svg" xmlns:xlink="http://www.w3.org/1999/xlink">
<g id="graph0" class="graph" transform="scale(1 1) rotate(0) translate(4 328)">
<title>%3</title>
<polygon fill="white" stroke="transparent" points="-4,4 -4,-328 378.29,-328 378.29,4 -4,4"/>
<!-- bright white -->
<g id="node1" class="node">
<title>bright white</title>
<ellipse fill="none" stroke="black" cx="233.44" cy="-234" rx="68.49" ry="18"/>
<text text-anchor="middle" x="233.44" y="-230.3" font-family="Times,serif" font-size="14.00">bright white</text>
</g>
<!-- shiny gold -->
<g id="node5" class="node">
<title>shiny gold</title>
<ellipse fill="none" stroke="black" cx="196.44" cy="-162" rx="58.49" ry="18"/>
<text text-anchor="middle" x="196.44" y="-158.3" font-family="Times,serif" font-size="14.00">shiny gold</text>
</g>
<!-- bright white&#45;&gt;shiny gold -->
<g id="edge1" class="edge">
<title>bright white&#45;&gt;shiny gold</title>
<path fill="none" stroke="black" d="M224.49,-216.05C220.23,-208.01 215.05,-198.2 210.31,-189.23"/>
<polygon fill="black" stroke="black" points="213.34,-187.48 205.57,-180.28 207.15,-190.75 213.34,-187.48"/>
</g>
<!-- light red -->
<g id="node2" class="node">
<title>light red</title>
<ellipse fill="none" stroke="black" cx="85.44" cy="-306" rx="50.89" ry="18"/>
<text text-anchor="middle" x="85.44" y="-302.3" font-family="Times,serif" font-size="14.00">light red</text>
</g>
<!-- light red&#45;&gt;bright white -->
<g id="edge2" class="edge">
<title>light red&#45;&gt;bright white</title>
<path fill="none" stroke="black" d="M114.68,-291.17C136.94,-280.64 167.86,-266.02 192.57,-254.33"/>
<polygon fill="black" stroke="black" points="194.16,-257.45 201.7,-250.01 191.17,-251.12 194.16,-257.45"/>
</g>
<!-- muted yellow -->
<g id="node3" class="node">
<title>muted yellow</title>
<ellipse fill="none" stroke="black" cx="73.44" cy="-234" rx="73.39" ry="18"/>
<text text-anchor="middle" x="73.44" y="-230.3" font-family="Times,serif" font-size="14.00">muted yellow</text>
</g>
<!-- light red&#45;&gt;muted yellow -->
<g id="edge3" class="edge">
<title>light red&#45;&gt;muted yellow</title>
<path fill="none" stroke="black" d="M82.48,-287.7C81.15,-279.98 79.57,-270.71 78.09,-262.11"/>
<polygon fill="black" stroke="black" points="81.52,-261.37 76.38,-252.1 74.62,-262.55 81.52,-261.37"/>
</g>
<!-- muted yellow&#45;&gt;shiny gold -->
<g id="edge4" class="edge">
<title>muted yellow&#45;&gt;shiny gold</title>
<path fill="none" stroke="black" d="M101.05,-217.29C118.78,-207.2 141.98,-194 161.06,-183.14"/>
<polygon fill="black" stroke="black" points="162.82,-186.16 169.78,-178.18 159.35,-180.08 162.82,-186.16"/>
</g>
<!-- faded blue -->
<g id="node6" class="node">
<title>faded blue</title>
<ellipse fill="none" stroke="black" cx="157.44" cy="-18" rx="59.59" ry="18"/>
<text text-anchor="middle" x="157.44" y="-14.3" font-family="Times,serif" font-size="14.00">faded blue</text>
</g>
<!-- muted yellow&#45;&gt;faded blue -->
<g id="edge5" class="edge">
<title>muted yellow&#45;&gt;faded blue</title>
<path fill="none" stroke="black" d="M71.45,-215.76C68.71,-184.86 66.71,-118.88 92.44,-72 99.44,-59.26 110.85,-48.41 122.18,-39.89"/>
<polygon fill="black" stroke="black" points="124.21,-42.75 130.35,-34.12 120.17,-37.03 124.21,-42.75"/>
</g>
<!-- dark orange -->
<g id="node4" class="node">
<title>dark orange</title>
<ellipse fill="none" stroke="black" cx="227.44" cy="-306" rx="66.89" ry="18"/>
<text text-anchor="middle" x="227.44" y="-302.3" font-family="Times,serif" font-size="14.00">dark orange</text>
</g>
<!-- dark orange&#45;&gt;bright white -->
<g id="edge6" class="edge">
<title>dark orange&#45;&gt;bright white</title>
<path fill="none" stroke="black" d="M228.93,-287.7C229.59,-279.98 230.38,-270.71 231.12,-262.11"/>
<polygon fill="black" stroke="black" points="234.61,-262.37 231.98,-252.1 227.64,-261.77 234.61,-262.37"/>
</g>
<!-- dark orange&#45;&gt;muted yellow -->
<g id="edge7" class="edge">
<title>dark orange&#45;&gt;muted yellow</title>
<path fill="none" stroke="black" d="M194.78,-290.15C171.77,-279.69 140.73,-265.59 115.81,-254.26"/>
<polygon fill="black" stroke="black" points="117.14,-251.02 106.59,-250.07 114.24,-257.39 117.14,-251.02"/>
</g>
<!-- dark olive -->
<g id="node7" class="node">
<title>dark olive</title>
<ellipse fill="none" stroke="black" cx="158.44" cy="-90" rx="56.59" ry="18"/>
<text text-anchor="middle" x="158.44" y="-86.3" font-family="Times,serif" font-size="14.00">dark olive</text>
</g>
<!-- shiny gold&#45;&gt;dark olive -->
<g id="edge8" class="edge">
<title>shiny gold&#45;&gt;dark olive</title>
<path fill="none" stroke="black" d="M187.24,-144.05C182.81,-135.89 177.4,-125.91 172.46,-116.82"/>
<polygon fill="black" stroke="black" points="175.4,-114.91 167.56,-107.79 169.25,-118.25 175.4,-114.91"/>
</g>
<!-- vibrant plum -->
<g id="node8" class="node">
<title>vibrant plum</title>
<ellipse fill="none" stroke="black" cx="303.44" cy="-90" rx="70.69" ry="18"/>
<text text-anchor="middle" x="303.44" y="-86.3" font-family="Times,serif" font-size="14.00">vibrant plum</text>
</g>
<!-- shiny gold&#45;&gt;vibrant plum -->
<g id="edge9" class="edge">
<title>shiny gold&#45;&gt;vibrant plum</title>
<path fill="none" stroke="black" d="M220.19,-145.46C234.94,-135.81 254.12,-123.27 270.35,-112.65"/>
<polygon fill="black" stroke="black" points="272.57,-115.38 279.02,-106.98 268.74,-109.52 272.57,-115.38"/>
</g>
<!-- dark olive&#45;&gt;faded blue -->
<g id="edge10" class="edge">
<title>dark olive&#45;&gt;faded blue</title>
<path fill="none" stroke="black" d="M158.2,-71.7C158.09,-63.98 157.95,-54.71 157.83,-46.11"/>
<polygon fill="black" stroke="black" points="161.33,-46.05 157.69,-36.1 154.33,-46.15 161.33,-46.05"/>
</g>
<!-- dotted black -->
<g id="node9" class="node">
<title>dotted black</title>
<ellipse fill="none" stroke="black" cx="303.44" cy="-18" rx="68.49" ry="18"/>
<text text-anchor="middle" x="303.44" y="-14.3" font-family="Times,serif" font-size="14.00">dotted black</text>
</g>
<!-- dark olive&#45;&gt;dotted black -->
<g id="edge11" class="edge">
<title>dark olive&#45;&gt;dotted black</title>
<path fill="none" stroke="black" d="M188.14,-74.67C209.79,-64.21 239.37,-49.93 263.16,-38.45"/>
<polygon fill="black" stroke="black" points="264.8,-41.54 272.29,-34.04 261.76,-35.24 264.8,-41.54"/>
</g>
<!-- vibrant plum&#45;&gt;faded blue -->
<g id="edge12" class="edge">
<title>vibrant plum&#45;&gt;faded blue</title>
<path fill="none" stroke="black" d="M271.76,-73.81C249.95,-63.35 220.78,-49.37 197.37,-38.15"/>
<polygon fill="black" stroke="black" points="198.59,-34.85 188.06,-33.68 195.56,-41.16 198.59,-34.85"/>
</g>
<!-- vibrant plum&#45;&gt;dotted black -->
<g id="edge13" class="edge">
<title>vibrant plum&#45;&gt;dotted black</title>
<path fill="none" stroke="black" d="M303.44,-71.7C303.44,-63.98 303.44,-54.71 303.44,-46.11"/>
<polygon fill="black" stroke="black" points="306.94,-46.1 303.44,-36.1 299.94,-46.1 306.94,-46.1"/>
</g>
</g>
</svg>
